<?xml version="1.0" encoding="us-ascii" standalone="no"?><svg xmlns="http://www.w3.org/2000/svg" xmlns:xlink="http://www.w3.org/1999/xlink" contentStyleType="text/css" height="820px" preserveAspectRatio="none" style="width:738px;height:820px;background:#FFFFFF;" version="1.1" viewBox="0 0 738 820" width="738px" zoomAndPan="magnify"><defs/><g><text fill="#000000" font-family="sans-serif" font-size="14" font-weight="bold" lengthAdjust="spacing" textLength="322" x="201.405" y="23.5352">Code Diagram for DeviceManagementService</text><!--class DeviceManagementService--><g id="elem_DeviceManagementService"><rect codeLine="5" fill="#F1F1F1" height="130.4414" id="DeviceManagementService" rx="2.5" ry="2.5" style="stroke:#181818;stroke-width:0.5;" width="429" x="247" y="44.4883"/><ellipse cx="366.75" cy="60.4883" fill="#ADD1B2" rx="11" ry="11" style="stroke:#181818;stroke-width:1.0;"/><path d="M369.2231,66.6313 Q368.6421,66.9302 368.0029,67.0796 Q367.3638,67.229 366.6582,67.229 Q364.1514,67.229 362.8315,65.5771 Q361.5117,63.9253 361.5117,60.8042 Q361.5117,57.6748 362.8315,56.0229 Q364.1514,54.3711 366.6582,54.3711 Q367.3638,54.3711 368.0112,54.5205 Q368.6587,54.6699 369.2231,54.9688 L369.2231,57.6914 Q368.5923,57.1104 367.9988,56.8406 Q367.4053,56.5708 366.7744,56.5708 Q365.4297,56.5708 364.7449,57.6375 Q364.0601,58.7041 364.0601,60.8042 Q364.0601,62.896 364.7449,63.9626 Q365.4297,65.0293 366.7744,65.0293 Q367.4053,65.0293 367.9988,64.7595 Q368.5923,64.4897 369.2231,63.9087 Z " fill="#000000"/><text fill="#000000" font-family="sans-serif" font-size="14" lengthAdjust="spacing" textLength="181" x="387.25" y="65.7793">DeviceManagementService</text><line style="stroke:#181818;stroke-width:0.5;" x1="248" x2="675" y1="76.4883" y2="76.4883"/><line style="stroke:#181818;stroke-width:0.5;" x1="248" x2="675" y1="84.4883" y2="84.4883"/><ellipse cx="258" cy="98.2324" fill="#84BE84" rx="3" ry="3" style="stroke:#038048;stroke-width:1.0;"/><text fill="#000000" font-family="sans-serif" font-size="14" lengthAdjust="spacing" textLength="202" x="267" y="102.0234">registerDevice(device: Device)</text><ellipse cx="258" cy="114.7207" fill="#84BE84" rx="3" ry="3" style="stroke:#038048;stroke-width:1.0;"/><text fill="#000000" font-family="sans-serif" font-size="14" lengthAdjust="spacing" textLength="403" x="267" y="118.5117">updateDevice(deviceId: Uuid, configuration: Configuration)</text><ellipse cx="258" cy="131.209" fill="#84BE84" rx="3" ry="3" style="stroke:#038048;stroke-width:1.0;"/><text fill="#000000" font-family="sans-serif" font-size="14" lengthAdjust="spacing" textLength="187" x="267" y="135">blockDevice(deviceId: Uuid)</text><ellipse cx="258" cy="147.6973" fill="#84BE84" rx="3" ry="3" style="stroke:#038048;stroke-width:1.0;"/><text fill="#000000" font-family="sans-serif" font-size="14" lengthAdjust="spacing" textLength="192" x="267" y="151.4883">deleteDevice(deviceId: Uuid)</text><ellipse cx="258" cy="164.1855" fill="#84BE84" rx="3" ry="3" style="stroke:#038048;stroke-width:1.0;"/><text fill="#000000" font-family="sans-serif" font-size="14" lengthAdjust="spacing" textLength="224" x="267" y="167.9766">getDevice(deviceId: Uuid): Device</text></g><!--class DeviceRepository--><g id="elem_DeviceRepository"><rect codeLine="13" fill="#F1F1F1" height="97.4648" id="DeviceRepository" rx="2.5" ry="2.5" style="stroke:#181818;stroke-width:0.5;" width="239" x="7" y="251.9283"/><ellipse cx="63.75" cy="267.9283" fill="#ADD1B2" rx="11" ry="11" style="stroke:#181818;stroke-width:1.0;"/><path d="M66.2231,274.0713 Q65.6421,274.3702 65.0029,274.5196 Q64.3638,274.669 63.6582,274.669 Q61.1514,274.669 59.8315,273.0171 Q58.5117,271.3653 58.5117,268.2442 Q58.5117,265.1148 59.8315,263.4629 Q61.1514,261.8111 63.6582,261.8111 Q64.3638,261.8111 65.0112,261.9605 Q65.6587,262.1099 66.2231,262.4088 L66.2231,265.1314 Q65.5923,264.5504 64.9988,264.2806 Q64.4053,264.0108 63.7744,264.0108 Q62.4297,264.0108 61.7449,265.0775 Q61.0601,266.1441 61.0601,268.2442 Q61.0601,270.336 61.7449,271.4026 Q62.4297,272.4693 63.7744,272.4693 Q64.4053,272.4693 64.9988,272.1995 Q65.5923,271.9297 66.2231,271.3487 Z " fill="#000000"/><text fill="#000000" font-family="sans-serif" font-size="14" lengthAdjust="spacing" textLength="117" x="84.25" y="273.2193">DeviceRepository</text><line style="stroke:#181818;stroke-width:0.5;" x1="8" x2="245" y1="283.9283" y2="283.9283"/><line style="stroke:#181818;stroke-width:0.5;" x1="8" x2="245" y1="291.9283" y2="291.9283"/><ellipse cx="18" cy="305.6724" fill="#84BE84" rx="3" ry="3" style="stroke:#038048;stroke-width:1.0;"/><text fill="#000000" font-family="sans-serif" font-size="14" lengthAdjust="spacing" textLength="135" x="27" y="309.4634">save(device: Device)</text><ellipse cx="18" cy="322.1607" fill="#84BE84" rx="3" ry="3" style="stroke:#038048;stroke-width:1.0;"/><text fill="#000000" font-family="sans-serif" font-size="14" lengthAdjust="spacing" textLength="213" x="27" y="325.9517">findById(deviceId: Uuid): Device</text><ellipse cx="18" cy="338.649" fill="#84BE84" rx="3" ry="3" style="stroke:#038048;stroke-width:1.0;"/><text fill="#000000" font-family="sans-serif" font-size="14" lengthAdjust="spacing" textLength="148" x="27" y="342.44">delete(deviceId: Uuid)</text></g><!--class ProtocolAdapter--><g id="elem_ProtocolAdapter"><rect codeLine="19" fill="#F1F1F1" height="97.4648" id="ProtocolAdapter" rx="2.5" ry="2.5" style="stroke:#181818;stroke-width:0.5;" width="361" x="281" y="251.9283"/><ellipse cx="401.25" cy="267.9283" fill="#ADD1B2" rx="11" ry="11" style="stroke:#181818;stroke-width:1.0;"/><path d="M403.7231,274.0713 Q403.1421,274.3702 402.5029,274.5196 Q401.8638,274.669 401.1582,274.669 Q398.6514,274.669 397.3315,273.0171 Q396.0117,271.3653 396.0117,268.2442 Q396.0117,265.1148 397.3315,263.4629 Q398.6514,261.8111 401.1582,261.8111 Q401.8638,261.8111 402.5112,261.9605 Q403.1587,262.1099 403.7231,262.4088 L403.7231,265.1314 Q403.0923,264.5504 402.4988,264.2806 Q401.9053,264.0108 401.2744,264.0108 Q399.9297,264.0108 399.2449,265.0775 Q398.5601,266.1441 398.5601,268.2442 Q398.5601,270.336 399.2449,271.4026 Q399.9297,272.4693 401.2744,272.4693 Q401.9053,272.4693 402.4988,272.1995 Q403.0923,271.9297 403.7231,271.3487 Z " fill="#000000"/><text fill="#000000" font-family="sans-serif" font-size="14" lengthAdjust="spacing" textLength="112" x="421.75" y="273.2193">ProtocolAdapter</text><line style="stroke:#181818;stroke-width:0.5;" x1="282" x2="641" y1="283.9283" y2="283.9283"/><line style="stroke:#181818;stroke-width:0.5;" x1="282" x2="641" y1="291.9283" y2="291.9283"/><ellipse cx="292" cy="305.6724" fill="#84BE84" rx="3" ry="3" style="stroke:#038048;stroke-width:1.0;"/><text fill="#000000" font-family="sans-serif" font-size="14" lengthAdjust="spacing" textLength="203" x="301" y="309.4634">connectDevice(device: Device)</text><ellipse cx="292" cy="322.1607" fill="#84BE84" rx="3" ry="3" style="stroke:#038048;stroke-width:1.0;"/><text fill="#000000" font-family="sans-serif" font-size="14" lengthAdjust="spacing" textLength="335" x="301" y="325.9517">sendCommand(deviceId: Uuid, command: String)</text><ellipse cx="292" cy="338.649" fill="#84BE84" rx="3" ry="3" style="stroke:#038048;stroke-width:1.0;"/><text fill="#000000" font-family="sans-serif" font-size="14" lengthAdjust="spacing" textLength="294" x="301" y="342.44">requestCurrentState(deviceId: Uuid): String</text></g><!--class Device--><g id="elem_Device"><rect codeLine="25" fill="#F1F1F1" height="179.9063" id="Device" rx="2.5" ry="2.5" style="stroke:#181818;stroke-width:0.5;" width="213" x="355" y="426.3883"/><ellipse cx="435.25" cy="442.3883" fill="#ADD1B2" rx="11" ry="11" style="stroke:#181818;stroke-width:1.0;"/><path d="M437.7231,448.5313 Q437.1421,448.8302 436.5029,448.9796 Q435.8638,449.129 435.1582,449.129 Q432.6514,449.129 431.3315,447.4771 Q430.0117,445.8253 430.0117,442.7042 Q430.0117,439.5748 431.3315,437.9229 Q432.6514,436.2711 435.1582,436.2711 Q435.8638,436.2711 436.5112,436.4205 Q437.1587,436.5699 437.7231,436.8688 L437.7231,439.5914 Q437.0923,439.0104 436.4988,438.7406 Q435.9053,438.4708 435.2744,438.4708 Q433.9297,438.4708 433.2449,439.5375 Q432.5601,440.6041 432.5601,442.7042 Q432.5601,444.796 433.2449,445.8626 Q433.9297,446.9293 435.2744,446.9293 Q435.9053,446.9293 436.4988,446.6595 Q437.0923,446.3897 437.7231,445.8087 Z " fill="#000000"/><text fill="#000000" font-family="sans-serif" font-size="14" lengthAdjust="spacing" textLength="44" x="455.75" y="447.6793">Device</text><line style="stroke:#181818;stroke-width:0.5;" x1="356" x2="567" y1="458.3883" y2="458.3883"/><ellipse cx="366" cy="472.1324" fill="none" rx="3" ry="3" style="stroke:#038048;stroke-width:1.0;"/><text fill="#000000" font-family="sans-serif" font-size="14" lengthAdjust="spacing" textLength="49" x="375" y="475.9234">Uuid id</text><ellipse cx="366" cy="488.6207" fill="none" rx="3" ry="3" style="stroke:#038048;stroke-width:1.0;"/><text fill="#000000" font-family="sans-serif" font-size="14" lengthAdjust="spacing" textLength="74" x="375" y="492.4117">String type</text><ellipse cx="366" cy="505.109" fill="none" rx="3" ry="3" style="stroke:#038048;stroke-width:1.0;"/><text fill="#000000" font-family="sans-serif" font-size="14" lengthAdjust="spacing" textLength="79" x="375" y="508.9">Uuid userId</text><ellipse cx="366" cy="521.5973" fill="none" rx="3" ry="3" style="stroke:#038048;stroke-width:1.0;"/><text fill="#000000" font-family="sans-serif" font-size="14" lengthAdjust="spacing" textLength="88" x="375" y="525.3883">Uuid homeId</text><ellipse cx="366" cy="538.0855" fill="none" rx="3" ry="3" style="stroke:#038048;stroke-width:1.0;"/><text fill="#000000" font-family="sans-serif" font-size="14" lengthAdjust="spacing" textLength="131" x="375" y="541.8766">Datetime createdAt</text><ellipse cx="366" cy="554.5738" fill="none" rx="3" ry="3" style="stroke:#038048;stroke-width:1.0;"/><text fill="#000000" font-family="sans-serif" font-size="14" lengthAdjust="spacing" textLength="137" x="375" y="558.3648">Datetime updatedAt</text><line style="stroke:#181818;stroke-width:0.5;" x1="356" x2="567" y1="565.318" y2="565.318"/><ellipse cx="366" cy="579.0621" fill="#84BE84" rx="3" ry="3" style="stroke:#038048;stroke-width:1.0;"/><text fill="#000000" font-family="sans-serif" font-size="14" lengthAdjust="spacing" textLength="80" x="375" y="582.8531">void block()</text><ellipse cx="366" cy="595.5504" fill="#84BE84" rx="3" ry="3" style="stroke:#038048;stroke-width:1.0;"/><text fill="#000000" font-family="sans-serif" font-size="14" lengthAdjust="spacing" textLength="187" x="375" y="599.3414">void updateConfiguration()</text></g><!--class Configuration--><g id="elem_Configuration"><rect codeLine="36" fill="#F1F1F1" height="130.4414" id="Configuration" rx="2.5" ry="2.5" style="stroke:#181818;stroke-width:0.5;" width="163" x="380" y="683.2983"/><ellipse cx="410.75" cy="699.2983" fill="#ADD1B2" rx="11" ry="11" style="stroke:#181818;stroke-width:1.0;"/><path d="M413.2231,705.4413 Q412.6421,705.7402 412.0029,705.8896 Q411.3638,706.039 410.6582,706.039 Q408.1514,706.039 406.8315,704.3871 Q405.5117,702.7353 405.5117,699.6142 Q405.5117,696.4848 406.8315,694.8329 Q408.1514,693.1811 410.6582,693.1811 Q411.3638,693.1811 412.0112,693.3305 Q412.6587,693.4799 413.2231,693.7788 L413.2231,696.5014 Q412.5923,695.9204 411.9988,695.6506 Q411.4053,695.3808 410.7744,695.3808 Q409.4297,695.3808 408.7449,696.4475 Q408.0601,697.5141 408.0601,699.6142 Q408.0601,701.706 408.7449,702.7726 Q409.4297,703.8393 410.7744,703.8393 Q411.4053,703.8393 411.9988,703.5695 Q412.5923,703.2997 413.2231,702.7187 Z " fill="#000000"/><text fill="#000000" font-family="sans-serif" font-size="14" lengthAdjust="spacing" textLength="96" x="428.25" y="704.5893">Configuration</text><line style="stroke:#181818;stroke-width:0.5;" x1="381" x2="542" y1="715.2983" y2="715.2983"/><ellipse cx="391" cy="729.0424" fill="none" rx="3" ry="3" style="stroke:#038048;stroke-width:1.0;"/><text fill="#000000" font-family="sans-serif" font-size="14" lengthAdjust="spacing" textLength="66" x="400" y="732.8334">Integer id</text><ellipse cx="391" cy="745.5307" fill="none" rx="3" ry="3" style="stroke:#038048;stroke-width:1.0;"/><text fill="#000000" font-family="sans-serif" font-size="14" lengthAdjust="spacing" textLength="131" x="400" y="749.3217">Datetime createdAt</text><ellipse cx="391" cy="762.019" fill="none" rx="3" ry="3" style="stroke:#038048;stroke-width:1.0;"/><text fill="#000000" font-family="sans-serif" font-size="14" lengthAdjust="spacing" textLength="137" x="400" y="765.81">Datetime updatedAt</text><line style="stroke:#181818;stroke-width:0.5;" x1="381" x2="542" y1="772.7631" y2="772.7631"/><ellipse cx="391" cy="786.5073" fill="#84BE84" rx="3" ry="3" style="stroke:#038048;stroke-width:1.0;"/><text fill="#000000" font-family="sans-serif" font-size="14" lengthAdjust="spacing" textLength="91" x="400" y="790.2983">void update()</text><ellipse cx="391" cy="802.9955" fill="#84BE84" rx="3" ry="3" style="stroke:#038048;stroke-width:1.0;"/><text fill="#000000" font-family="sans-serif" font-size="14" lengthAdjust="spacing" textLength="85" x="400" y="806.7866">void delete()</text></g><!--link DeviceManagementService to DeviceRepository--><g id="link_DeviceManagementService_DeviceRepository"><path codeLine="44" d="M347.15,175.2083 C302.8,200.2183 258.1262,225.4209 217.0062,248.6109 " fill="none" id="DeviceManagementService-to-DeviceRepository" style="stroke:#181818;stroke-width:1.0;"/><polygon fill="#181818" points="211.78,251.5583,221.5842,250.6214,216.1352,249.1021,217.6544,243.6531,211.78,251.5583" style="stroke:#181818;stroke-width:1.0;"/><text fill="#000000" font-family="sans-serif" font-size="13" lengthAdjust="spacing" textLength="29" x="295" y="218.4966">uses</text></g><!--link DeviceManagementService to ProtocolAdapter--><g id="link_DeviceManagementService_ProtocolAdapter"><path codeLine="45" d="M461.5,175.2083 C461.5,200.2183 461.5,222.3683 461.5,245.5583 " fill="none" id="DeviceManagementService-to-ProtocolAdapter" style="stroke:#181818;stroke-width:1.0;"/><polygon fill="#181818" points="461.5,251.5583,465.5,242.5583,461.5,246.5583,457.5,242.5583,461.5,251.5583" style="stroke:#181818;stroke-width:1.0;"/><text fill="#000000" font-family="sans-serif" font-size="13" lengthAdjust="spacing" textLength="29" x="462.5" y="218.4966">uses</text></g><!--link DeviceManagementService to Device--><g id="link_DeviceManagementService_Device"><path codeLine="46" d="M589.85,175.2683 C617.79,195.7483 643.69,221.2383 659.5,251.9283 C679.33,290.4383 677.82,310.1383 659.5,349.3883 C640.01,391.1483 609.0673,422.5246 573.2573,449.4246 " fill="none" id="DeviceManagementService-to-Device" style="stroke:#181818;stroke-width:1.0;"/><polygon fill="#181818" points="568.46,453.0283,578.0583,450.821,572.4577,450.0252,573.2535,444.4246,568.46,453.0283" style="stroke:#181818;stroke-width:1.0;"/><text fill="#000000" font-family="sans-serif" font-size="13" lengthAdjust="spacing" textLength="56" x="674.81" y="305.7266">manages</text></g><!--link Device to Configuration--><g id="link_Device_Configuration"><path codeLine="48" d="M461.5,606.6683 C461.5,632.0683 461.5,659.2283 461.5,682.8583 " fill="none" id="Device-Configuration" style="stroke:#181818;stroke-width:1.0;"/><text fill="#000000" font-family="sans-serif" font-size="13" lengthAdjust="spacing" textLength="22" x="462.5" y="649.8666">has</text><text fill="#000000" font-family="sans-serif" font-size="13" lengthAdjust="spacing" textLength="8" x="453.1938" y="626.7384">1</text><text fill="#000000" font-family="sans-serif" font-size="13" lengthAdjust="spacing" textLength="24" x="436.1875" y="672.4417">0..1</text></g><!--link DeviceRepository to Device--><g id="link_DeviceRepository_Device"><path codeLine="49" d="M202.1,349.8783 C247.16,378.6183 300.0118,412.3311 349.6818,444.0211 " fill="none" id="DeviceRepository-to-Device" style="stroke:#181818;stroke-width:1.0;"/><polygon fill="#181818" points="354.74,447.2483,349.3042,439.0354,350.5248,444.559,345.0013,445.7796,354.74,447.2483" style="stroke:#181818;stroke-width:1.0;"/><text fill="#000000" font-family="sans-serif" font-size="13" lengthAdjust="spacing" textLength="50" x="274.94" y="392.9566">persists</text></g><!--link ProtocolAdapter to Device--><g id="link_ProtocolAdapter_Device"><path codeLine="50" d="M461.5,349.8783 C461.5,372.4083 461.5,393.9683 461.5,420.0883 " fill="none" id="ProtocolAdapter-to-Device" style="stroke:#181818;stroke-width:1.0;"/><polygon fill="#181818" points="461.5,426.0883,465.5,417.0883,461.5,421.0883,457.5,417.0883,461.5,426.0883" style="stroke:#181818;stroke-width:1.0;"/><text fill="#000000" font-family="sans-serif" font-size="13" lengthAdjust="spacing" textLength="86" x="462.5" y="392.9566">interacts with</text></g><!--SRC=[dLF1JiCm3BtdAwoTDi4ckFQ0DBPB3qY8YG_84g-BQEEIk4CJujz9cwvgHuiGfyP-p_RBSyg6SuGDQOIjaPcJ1Hp8mHPFHk6Jj3B30YtlqDK98PXAO88zCLC1sZXKRCWAeNBf_LGTV0g06uUPyOmkakQw-IHjpQ9cLAMMZ0CyrGcyLaRVWY9xC5dbP3qm2PfxOLEzpqczZHOtiCOS9vetU8Oy3buaYg_XDL-m96-Ot3dUpylJwAqEnkh7Swed-tRYViZg9ZuxObAKhxKiWuLnO7341l-d_VHezOQAGbezOcUJJs37pjXi4JVqNg7dJULSlJoMF696v5-R4HNL532wFaOQyBd43gaykbHtuP4AZE4sJ69J82Y7uQZNFCZ6Tz5cJnHAcrtF5rqS6OCtCU_PDm2YrDGoPi59ypy1CTDJq6wm6Jhr6ooN3p_VJbBRud-jkTx-7qhQhIHGDB2_Y8BP_ImGO7QtMeNJq9W4ZlBIjgTmqAz4vyDlxCMrg07B17UTLEpXm_1HV0C0]--></g></svg>