<?xml version="1.0" encoding="us-ascii" standalone="no"?><svg xmlns="http://www.w3.org/2000/svg" xmlns:xlink="http://www.w3.org/1999/xlink" contentStyleType="text/css" height="863px" preserveAspectRatio="none" style="width:467px;height:863px;background:#FFFFFF;" version="1.1" viewBox="0 0 467 863" width="467px" zoomAndPan="magnify"><defs/><g><text fill="#000000" font-family="sans-serif" font-size="14" font-weight="bold" lengthAdjust="spacing" textLength="171" x="141.25" y="23.5352">Smarthome ER Diagram</text><!--class user--><g id="elem_user"><rect codeLine="6" fill="#F1F1F1" height="190.8828" id="user" rx="2.5" ry="2.5" style="stroke:#181818;stroke-width:0.5;" width="170" x="95.5" y="44.4883"/><text fill="#000000" font-family="sans-serif" font-size="14" lengthAdjust="spacing" textLength="31" x="165" y="63.0234">User</text><line style="stroke:#181818;stroke-width:0.5;" x1="96.5" x2="264.5" y1="70.9766" y2="70.9766"/><ellipse cx="106.5" cy="84.7207" fill="none" rx="3" ry="3" style="stroke:#038048;stroke-width:1.0;"/><text fill="#000000" font-family="sans-serif" font-size="14" lengthAdjust="spacing" textLength="59" x="115.5" y="88.5117">id : UUID</text><line style="stroke:#181818;stroke-width:1.0;" x1="96.5" x2="264.5" y1="95.4648" y2="95.4648"/><text fill="#000000" font-family="sans-serif" font-size="14" lengthAdjust="spacing" textLength="90" x="101.5" y="113">name : string</text><text fill="#000000" font-family="sans-serif" font-size="14" lengthAdjust="spacing" textLength="112" x="101.5" y="129.4883">surname : string</text><text fill="#000000" font-family="sans-serif" font-size="14" lengthAdjust="spacing" textLength="99" x="101.5" y="145.9766">birthday : date</text><text fill="#000000" font-family="sans-serif" font-size="14" lengthAdjust="spacing" textLength="96" x="101.5" y="162.4648">phone : string</text><text fill="#000000" font-family="sans-serif" font-size="14" lengthAdjust="spacing" textLength="158" x="101.5" y="178.9531">password_hash : string</text><text fill="#000000" font-family="sans-serif" font-size="14" lengthAdjust="spacing" textLength="79" x="101.5" y="195.4414">role : string</text><text fill="#000000" font-family="sans-serif" font-size="14" lengthAdjust="spacing" textLength="143" x="101.5" y="211.9297">created_at : datetime</text><text fill="#000000" font-family="sans-serif" font-size="14" lengthAdjust="spacing" textLength="149" x="101.5" y="228.418">updated_at : datetime</text></g><!--class auth--><g id="elem_auth"><rect codeLine="19" fill="#F1F1F1" height="108.4414" id="auth" rx="2.5" ry="2.5" style="stroke:#181818;stroke-width:0.5;" width="155" x="7" y="311.8583"/><text fill="#000000" font-family="sans-serif" font-size="14" lengthAdjust="spacing" textLength="33" x="68" y="330.3934">Auth</text><line style="stroke:#181818;stroke-width:0.5;" x1="8" x2="161" y1="338.3466" y2="338.3466"/><ellipse cx="18" cy="352.0907" fill="none" rx="3" ry="3" style="stroke:#038048;stroke-width:1.0;"/><text fill="#000000" font-family="sans-serif" font-size="14" lengthAdjust="spacing" textLength="59" x="27" y="355.8817">id : UUID</text><line style="stroke:#181818;stroke-width:1.0;" x1="8" x2="161" y1="362.8348" y2="362.8348"/><text fill="#000000" font-family="sans-serif" font-size="14" lengthAdjust="spacing" textLength="131" x="13" y="380.37">user_id : UUID &#171;FK&#187;</text><text fill="#000000" font-family="sans-serif" font-size="14" lengthAdjust="spacing" textLength="143" x="13" y="396.8583">created_at : datetime</text><text fill="#000000" font-family="sans-serif" font-size="14" lengthAdjust="spacing" textLength="143" x="13" y="413.3466">expires_at : datetime</text></g><!--class home--><g id="elem_home"><rect codeLine="27" fill="#F1F1F1" height="141.418" id="home" rx="2.5" ry="2.5" style="stroke:#181818;stroke-width:0.5;" width="161" x="197" y="295.3683"/><text fill="#000000" font-family="sans-serif" font-size="14" lengthAdjust="spacing" textLength="40" x="257.5" y="313.9034">Home</text><line style="stroke:#181818;stroke-width:0.5;" x1="198" x2="357" y1="321.8566" y2="321.8566"/><ellipse cx="208" cy="335.6007" fill="none" rx="3" ry="3" style="stroke:#038048;stroke-width:1.0;"/><text fill="#000000" font-family="sans-serif" font-size="14" lengthAdjust="spacing" textLength="59" x="217" y="339.3917">id : UUID</text><line style="stroke:#181818;stroke-width:1.0;" x1="198" x2="357" y1="346.3448" y2="346.3448"/><text fill="#000000" font-family="sans-serif" font-size="14" lengthAdjust="spacing" textLength="131" x="203" y="363.88">user_id : UUID &#171;FK&#187;</text><text fill="#000000" font-family="sans-serif" font-size="14" lengthAdjust="spacing" textLength="143" x="203" y="380.3683">created_at : datetime</text><text fill="#000000" font-family="sans-serif" font-size="14" lengthAdjust="spacing" textLength="149" x="203" y="396.8566">updated_at : datetime</text><text fill="#000000" font-family="sans-serif" font-size="14" lengthAdjust="spacing" textLength="102" x="203" y="413.3448">address: string</text><text fill="#000000" font-family="sans-serif" font-size="14" lengthAdjust="spacing" textLength="104" x="203" y="429.8331">square: integer</text></g><!--class device--><g id="elem_device"><rect codeLine="37" fill="#F1F1F1" height="157.9063" id="device" rx="2.5" ry="2.5" style="stroke:#181818;stroke-width:0.5;" width="161" x="197" y="496.7883"/><text fill="#000000" font-family="sans-serif" font-size="14" lengthAdjust="spacing" textLength="44" x="255.5" y="515.3234">Device</text><line style="stroke:#181818;stroke-width:0.5;" x1="198" x2="357" y1="523.2766" y2="523.2766"/><ellipse cx="208" cy="537.0207" fill="none" rx="3" ry="3" style="stroke:#038048;stroke-width:1.0;"/><text fill="#000000" font-family="sans-serif" font-size="14" lengthAdjust="spacing" textLength="59" x="217" y="540.8117">id : UUID</text><line style="stroke:#181818;stroke-width:1.0;" x1="198" x2="357" y1="547.7648" y2="547.7648"/><text fill="#000000" font-family="sans-serif" font-size="14" lengthAdjust="spacing" textLength="140" x="203" y="565.3">home_id : UUID &#171;FK&#187;</text><text fill="#000000" font-family="sans-serif" font-size="14" lengthAdjust="spacing" textLength="81" x="203" y="581.7883">type : string</text><text fill="#000000" font-family="sans-serif" font-size="14" lengthAdjust="spacing" textLength="143" x="203" y="598.2766">created_at : datetime</text><text fill="#000000" font-family="sans-serif" font-size="14" lengthAdjust="spacing" textLength="149" x="203" y="614.7648">updated_at : datetime</text><text fill="#000000" font-family="sans-serif" font-size="14" lengthAdjust="spacing" textLength="140" x="203" y="631.2531">is_blocked : boolean</text><text fill="#000000" font-family="sans-serif" font-size="14" lengthAdjust="spacing" textLength="141" x="203" y="647.7414">is_enabled : boolean</text></g><!--class configuration--><g id="elem_configuration"><rect codeLine="48" fill="#F1F1F1" height="141.418" id="configuration" rx="2.5" ry="2.5" style="stroke:#181818;stroke-width:0.5;" width="161" x="98" y="714.6883"/><text fill="#000000" font-family="sans-serif" font-size="14" lengthAdjust="spacing" textLength="96" x="130.5" y="733.2234">Configuration</text><line style="stroke:#181818;stroke-width:0.5;" x1="99" x2="258" y1="741.1766" y2="741.1766"/><ellipse cx="109" cy="754.9207" fill="none" rx="3" ry="3" style="stroke:#038048;stroke-width:1.0;"/><text fill="#000000" font-family="sans-serif" font-size="14" lengthAdjust="spacing" textLength="59" x="118" y="758.7117">id : UUID</text><line style="stroke:#181818;stroke-width:1.0;" x1="99" x2="258" y1="765.6648" y2="765.6648"/><text fill="#000000" font-family="sans-serif" font-size="14" lengthAdjust="spacing" textLength="144" x="104" y="783.2">device_id : UUID &#171;FK&#187;</text><text fill="#000000" font-family="sans-serif" font-size="14" lengthAdjust="spacing" textLength="143" x="104" y="799.6883">created_at : datetime</text><text fill="#000000" font-family="sans-serif" font-size="14" lengthAdjust="spacing" textLength="149" x="104" y="816.1766">updated_at : datetime</text><text fill="#000000" font-family="sans-serif" font-size="14" lengthAdjust="spacing" textLength="137" x="104" y="832.6648">is_applied : boolean</text><text fill="#000000" font-family="sans-serif" font-size="14" lengthAdjust="spacing" textLength="92" x="104" y="849.1531">params : json</text></g><!--class telemetry--><g id="elem_telemetry"><rect codeLine="58" fill="#F1F1F1" height="124.9297" id="telemetry" rx="2.5" ry="2.5" style="stroke:#181818;stroke-width:0.5;" width="166" x="294.5" y="722.9383"/><text fill="#000000" font-family="sans-serif" font-size="14" lengthAdjust="spacing" textLength="68" x="343.5" y="741.4734">Telemetry</text><line style="stroke:#181818;stroke-width:0.5;" x1="295.5" x2="459.5" y1="749.4266" y2="749.4266"/><ellipse cx="305.5" cy="763.1707" fill="none" rx="3" ry="3" style="stroke:#038048;stroke-width:1.0;"/><text fill="#000000" font-family="sans-serif" font-size="14" lengthAdjust="spacing" textLength="59" x="314.5" y="766.9617">id : UUID</text><line style="stroke:#181818;stroke-width:1.0;" x1="295.5" x2="459.5" y1="773.9148" y2="773.9148"/><text fill="#000000" font-family="sans-serif" font-size="14" lengthAdjust="spacing" textLength="144" x="300.5" y="791.45">device_id : UUID &#171;FK&#187;</text><text fill="#000000" font-family="sans-serif" font-size="14" lengthAdjust="spacing" textLength="140" x="300.5" y="807.9383">metric_name : string</text><text fill="#000000" font-family="sans-serif" font-size="14" lengthAdjust="spacing" textLength="138" x="300.5" y="824.4266">metric_value : string</text><text fill="#000000" font-family="sans-serif" font-size="14" lengthAdjust="spacing" textLength="154" x="300.5" y="840.9148">recorded_at : datetime</text></g><!--link user to auth--><g id="link_user_auth"><path codeLine="67" d="M128.75,243.8283 C128.75,269.7183 128.75,280.8283 128.75,303.5683 " fill="none" id="user-auth" style="stroke:#181818;stroke-width:1.0;"/><line style="stroke:#181818;stroke-width:1.0;" x1="124.75" x2="132.75" y1="239.8283" y2="239.8283"/><line style="stroke:#181818;stroke-width:1.0;" x1="124.75" x2="132.75" y1="242.8283" y2="242.8283"/><line style="stroke:#181818;stroke-width:1.0;" x1="128.75" x2="128.75" y1="243.8283" y2="235.8283"/><line style="stroke:#181818;stroke-width:1.0;" x1="128.75" x2="134.75" y1="303.5683" y2="311.5683"/><line style="stroke:#181818;stroke-width:1.0;" x1="128.75" x2="122.75" y1="303.5683" y2="311.5683"/><line style="stroke:#181818;stroke-width:1.0;" x1="128.75" x2="128.75" y1="303.5683" y2="311.5683"/><line style="stroke:#181818;stroke-width:1.0;" x1="132.75" x2="124.75" y1="301.5683" y2="301.5683"/></g><!--link user to home--><g id="link_user_home"><path codeLine="68" d="M231.25,243.8283 C231.25,263.6983 231.25,258.2883 231.25,277.0683 " fill="none" id="user-home" style="stroke:#181818;stroke-width:1.0;"/><line style="stroke:#181818;stroke-width:1.0;" x1="227.25" x2="235.25" y1="239.8283" y2="239.8283"/><line style="stroke:#181818;stroke-width:1.0;" x1="227.25" x2="235.25" y1="242.8283" y2="242.8283"/><line style="stroke:#181818;stroke-width:1.0;" x1="231.25" x2="231.25" y1="243.8283" y2="235.8283"/><line style="stroke:#181818;stroke-width:1.0;" x1="231.25" x2="237.25" y1="287.0683" y2="295.0683"/><line style="stroke:#181818;stroke-width:1.0;" x1="231.25" x2="225.25" y1="287.0683" y2="295.0683"/><line style="stroke:#181818;stroke-width:1.0;" x1="231.25" x2="231.25" y1="287.0683" y2="295.0683"/><ellipse cx="231.25" cy="281.0683" fill="none" rx="4" ry="4" style="stroke:#181818;stroke-width:1.0;"/></g><!--link home to device--><g id="link_home_device"><path codeLine="69" d="M277.5,445.0583 C277.5,464.1883 277.5,458.9983 277.5,478.5383 " fill="none" id="home-device" style="stroke:#181818;stroke-width:1.0;"/><line style="stroke:#181818;stroke-width:1.0;" x1="273.5" x2="281.5" y1="441.0583" y2="441.0583"/><line style="stroke:#181818;stroke-width:1.0;" x1="273.5" x2="281.5" y1="444.0583" y2="444.0583"/><line style="stroke:#181818;stroke-width:1.0;" x1="277.5" x2="277.5" y1="445.0583" y2="437.0583"/><line style="stroke:#181818;stroke-width:1.0;" x1="277.5" x2="283.5" y1="488.5383" y2="496.5383"/><line style="stroke:#181818;stroke-width:1.0;" x1="277.5" x2="271.5" y1="488.5383" y2="496.5383"/><line style="stroke:#181818;stroke-width:1.0;" x1="277.5" x2="277.5" y1="488.5383" y2="496.5383"/><ellipse cx="277.5" cy="482.5383" fill="none" rx="4" ry="4" style="stroke:#181818;stroke-width:1.0;"/></g><!--link device to configuration--><g id="link_device_configuration"><path codeLine="70" d="M228,672.9983 C228,692.4783 228,680.2183 228,699.2883 " fill="none" id="device-configuration" style="stroke:#181818;stroke-width:1.0;"/><line style="stroke:#181818;stroke-width:1.0;" x1="228" x2="222" y1="662.9983" y2="654.9983"/><line style="stroke:#181818;stroke-width:1.0;" x1="228" x2="234" y1="662.9983" y2="654.9983"/><line style="stroke:#181818;stroke-width:1.0;" x1="228" x2="228" y1="662.9983" y2="654.9983"/><ellipse cx="228" cy="668.9983" fill="none" rx="4" ry="4" style="stroke:#181818;stroke-width:1.0;"/><line style="stroke:#181818;stroke-width:1.0;" x1="228" x2="228" y1="703.2883" y2="714.2883"/><ellipse cx="228" cy="703.2883" fill="none" rx="4" ry="4" style="stroke:#181818;stroke-width:1.0;"/><line style="stroke:#181818;stroke-width:1.0;" x1="232" x2="224" y1="710.2883" y2="710.2883"/></g><!--link device to telemetry--><g id="link_device_telemetry"><path codeLine="71" d="M326.25,662.9983 C326.25,685.3783 326.25,683.4183 326.25,704.6783 " fill="none" id="device-telemetry" style="stroke:#181818;stroke-width:1.0;"/><line style="stroke:#181818;stroke-width:1.0;" x1="322.25" x2="330.25" y1="658.9983" y2="658.9983"/><line style="stroke:#181818;stroke-width:1.0;" x1="322.25" x2="330.25" y1="661.9983" y2="661.9983"/><line style="stroke:#181818;stroke-width:1.0;" x1="326.25" x2="326.25" y1="662.9983" y2="654.9983"/><line style="stroke:#181818;stroke-width:1.0;" x1="326.25" x2="332.25" y1="714.6783" y2="722.6783"/><line style="stroke:#181818;stroke-width:1.0;" x1="326.25" x2="320.25" y1="714.6783" y2="722.6783"/><line style="stroke:#181818;stroke-width:1.0;" x1="326.25" x2="326.25" y1="714.6783" y2="722.6783"/><ellipse cx="326.25" cy="708.6783" fill="none" rx="4" ry="4" style="stroke:#181818;stroke-width:1.0;"/></g><!--SRC=[hPF1JiCm38RlUGfhLxGNc10IOY0GDs3doclCQfOc9Kc1QTkxuwRTQASD2RHBcdnfxF-FuyZH43oNw6FXIeBR9vWoBZoMIXMi2NBskI4Lbcmh50o6BSLLHU2Q8qgHZHnNC9e5yYF00BLCOAq0BbZ316QpXwaincCPB4gA2OJesIva7Mf_YEOiOJMkX6cC9AGgd1tyKc48dyxhhC1Gz3UyCuCVSqyIGcSOksYHooPYNUaZVFlZvRgEHVA2CZdXfR6PxIbSNjuzNbtzafI-AlOKJYUzb_jFILCXpfFqk5C0r5gqX7uftclqD06saHRa-yAczC5vAqsdwGbnZUvZuj9h-NTP03XaS-Fo9JMXvqwAZBR5P75k1hWd-yRPLrxK7YCxczJdVNB2HElm77Si-h2g31_8JbqK1Bq5Dz3xGePAYdwLjCRTwiywcrESPuUDrU4FDFM0UygbbuvrGshapMOytgpRHlWXRjs-KfN6ZdIFGtNVhHEwERZqtMPtPEzIVGC0]--></g></svg>